<svg xmlns="http://www.w3.org/2000/svg" viewBox="0 0 512 512" width="512" height="512">
  <defs>
    <linearGradient id="bg-cream" x1="0" y1="0" x2="0" y2="1">
      <stop offset="0%" stop-color="#FAF6EC"/>
      <stop offset="50%" stop-color="#F4EFE5"/>
      <stop offset="100%" stop-color="#ECE7DB"/>
    </linearGradient>
    <radialGradient id="bg-glow" cx="50%" cy="45%" r="60%">
      <stop offset="0%" stop-color="#2E6DB4" stop-opacity="0.10"/>
      <stop offset="55%" stop-color="#2E6DB4" stop-opacity="0.04"/>
      <stop offset="100%" stop-color="#2E6DB4" stop-opacity="0"/>
    </radialGradient>
  </defs>

  <rect width="512" height="512" fill="url(#bg-cream)"/>
  <rect width="512" height="512" fill="url(#bg-glow)"/>

  <svg x="26" y="26" width="460" height="460" viewBox="0 0 220 220">
    <defs>
      <path id="ti-arc-top" d="M 110,110 m -72,0 a 72,72 0 0,1 144,0"/>
      <path id="ti-arc-bot" d="M 110,110 m -76,0 a 76,76 0 0,0 152,0"/>
    </defs>
    <g stroke="#2E6DB4" fill="none" stroke-linecap="round" stroke-linejoin="round">
      <circle cx="110" cy="110" r="91" stroke-width="2"/>
      <circle cx="110" cy="110" r="86" stroke-width="3.5"/>
      <circle cx="110" cy="110" r="60" stroke-width="2.5"/>
      <circle cx="110" cy="110" r="48" stroke-width="1.2"/>
      <circle cx="110" cy="110" r="36" stroke-width="1.2"/>
      <circle cx="110" cy="110" r="22" stroke-width="1.8"/>
      <line x1="93" y1="110" x2="127" y2="110" stroke-width="2.2"/>
    </g>
    <g fill="#2E6DB4">
      <circle cx="110" cy="110" r="4.5"/>
      <path d="M 38,102 L 40,108 L 46,110 L 40,112 L 38,118 L 36,112 L 30,110 L 36,108 Z"/>
      <path d="M 182,102 L 184,108 L 190,110 L 184,112 L 182,118 L 180,112 L 174,110 L 180,108 Z"/>
    </g>
    <g fill="#2E6DB4" font-family="DM Sans, -apple-system, BlinkMacSystemFont, Helvetica, sans-serif" font-weight="600">
      <text font-size="10.5" letter-spacing="3.4">
        <textPath href="#ti-arc-top" startOffset="50%" text-anchor="middle">SAFETY CRITICAL LABS</textPath>
      </text>
      <text font-size="9" letter-spacing="2.8">
        <textPath href="#ti-arc-bot" startOffset="50%" text-anchor="middle">AI CERTIFICATION AUTHORITY</textPath>
      </text>
    </g>
  </svg>
</svg>
