<?xml version="1.0" standalone="yes"?>
<svg xmlns="http://www.w3.org/2000/svg" width="180" height="180">
<path style="fill:#ffffff; stroke:none;" d="M0 0L0 76C4.59623 67.3701 5.49687 56.8759 10.3086 48C22.9505 24.6806 48.6512 3.23384 76 1C69.3223 -1.80206 59.2156 0 52 0L0 0z"/>
<path style="fill:#feedc9; stroke:none;" d="M76.6667 0.333328C76.2222 0.777802 77.2778 0.722244 77.3333 0.666672C77.7778 0.222229 76.7222 0.277771 76.6667 0.333328z"/>
<path style="fill:#fcdb93; stroke:none;" d="M78.6667 0.333328C78.2222 0.777802 79.2778 0.722244 79.3333 0.666672C79.7778 0.222244 78.7222 0.277771 78.6667 0.333328z"/>
<path style="fill:#fbca5c; stroke:none;" d="M80 0C81.2484 0.684814 81.5484 0.748779 83 1C81.7517 0.315231 81.4515 0.251205 80 0z"/>
<path style="fill:#fab827; stroke:none;" d="M83 0.424377C67.2081 2.52325 52.2992 6.12474 39 15.4398C-6.21777 47.1115 -13.7799 116.02 27.0147 154.91C48.0663 174.98 76.6016 182.539 105 178.711C116.28 177.191 127.198 172.802 137 167.124C145.816 162.018 153.671 154.932 159.996 147C192.681 106.01 183.652 42.7238 139 14.0903C130.832 8.85271 121.434 4.88615 112 2.65433C102.791 0.475861 92.4227 -0.827988 83 0.424377z"/>
<path style="fill:#fbca5c; stroke:none;" d="M97 0C98.2484 0.684814 98.5484 0.748779 100 1C98.7517 0.315247 98.4515 0.25119 97 0z"/>
<path style="fill:#fde0a0; stroke:none;" d="M100.667 0.333328C100.222 0.777817 101.278 0.722244 101.333 0.666672C101.778 0.222244 100.722 0.277771 100.667 0.333328z"/>
<path style="fill:#ffffff; stroke:none;" d="M102 0C110.25 3.55869 119.632 4.19171 128 8.25926C153.184 20.5014 176.634 47.0316 179 76C181.802 69.3223 180 59.2156 180 52L180 0L102 0z"/>
<path style="fill:#fde0a0; stroke:none;" d="M71.6667 1.33333C71.2222 1.77783 72.2778 1.7222 72.3333 1.66667C72.7777 1.22224 71.7222 1.27776 71.6667 1.33333z"/>
<path style="fill:#fbc54f; stroke:none;" d="M73.6667 1.33333C73.2222 1.77783 74.2778 1.7222 74.3333 1.66667C74.7777 1.22226 73.7223 1.27774 73.6667 1.33333z"/>
<path style="fill:#fde0a0; stroke:none;" d="M106 1C107.248 1.68481 107.548 1.74878 109 2C107.752 1.31523 107.452 1.25121 106 1z"/>
<path style="fill:#fcd785; stroke:none;" d="M67.6667 2.33333C67.2222 2.77782 68.2778 2.72223 68.3333 2.66667C68.7778 2.22223 67.7222 2.27777 67.6667 2.33333z"/>
<path style="fill:#fde9bb; stroke:none;" d="M111.667 2.33333C111.222 2.77782 112.278 2.72223 112.333 2.66667C112.778 2.22223 111.722 2.27777 111.667 2.33333z"/>
<path style="fill:#fbc54f; stroke:none;" d="M64.6667 3.33333C64.2222 3.7778 65.2778 3.72224 65.3333 3.66667C65.7778 3.22223 64.7222 3.27779 64.6667 3.33333z"/>
<path style="fill:#fef2d6; stroke:none;" d="M115.667 3.33333C115.222 3.77782 116.278 3.72224 116.333 3.66667C116.778 3.22224 115.722 3.27777 115.667 3.33333z"/>
<path style="fill:#fcd785; stroke:none;" d="M118 4L119 5L118 4z"/>
<path style="fill:#fcdb93; stroke:none;" d="M58 5L59 6L58 5M121 5L122 6L121 5z"/>
<path style="fill:#fde4ae; stroke:none;" d="M55 6L56 7L55 6M124 6L125 7L124 6z"/>
<path style="fill:#fcdb93; stroke:none;" d="M53 7L54 8L53 7M126 7L127 8L126 7z"/>
<path style="fill:#fcd785; stroke:none;" d="M51 8L52 9L51 8M128 8L129 9L128 8z"/>
<path style="fill:#fcd277; stroke:none;" d="M49 9L50 10L49 9M130 9L131 10L130 9z"/>
<path style="fill:#fcdb93; stroke:none;" d="M47 10L48 11L47 10M132 10L133 11L132 10z"/>
<path style="fill:#fde0a0; stroke:none;" d="M45 11L46 12L45 11M134 11L135 12L134 11M40 14L41 15L40 14M139 14L140 15L139 14z"/>
<path style="fill:#fcd785; stroke:none;" d="M36 17L37 18L36 17M143 17L144 18L143 17z"/>
<path style="fill:#fde0a0; stroke:none;" d="M32 20L33 21L32 20M147 20L148 21L147 20z"/>
<path style="fill:#fcd277; stroke:none;" d="M31 21L32 22L31 21M148 21L149 22L148 21M21 31L22 32L21 31M158 31L159 32L158 31z"/>
<path style="fill:#fde0a0; stroke:none;" d="M20 32L21 33L20 32M159 32L160 33L159 32z"/>
<path style="fill:#fcd785; stroke:none;" d="M17 36L18 37L17 36M162 36L163 37L162 36z"/>
<path style="fill:#fde0a0; stroke:none;" d="M14 40L15 41L14 40M165 40L166 41L165 40M11 45L12 46L11 45M168 45L169 46L168 45z"/>
<path style="fill:#fcdb93; stroke:none;" d="M10 47L11 48L10 47z"/>
<path style="fill:#fbca5c; stroke:none;" d="M110 47C112.052 47.8742 113.747 47.9528 116 48C113.948 47.1258 112.253 47.0472 110 47z"/>
<path style="fill:#fcdb93; stroke:none;" d="M116 47C117.769 47.7789 119.036 47.9124 121 48C119.231 47.2211 117.964 47.0876 116 47z"/>
<path style="fill:#fbca5c; stroke:none;" d="M121 47C122.769 47.7789 124.036 47.9124 126 48C124.231 47.2211 122.964 47.0876 121 47z"/>
<path style="fill:#fcdb93; stroke:none;" d="M169 47L170 48L169 47M33 48L33 109L33.0008 125C33.0145 126.992 32.6987 129.719 34.0278 131.397C36.5705 134.607 45.3257 133 49 133C44.5286 131.124 38.8166 132 34 132L34 74C34 66.2563 36.0042 55.1593 33 48z"/>
<path style="fill:#feedc9; stroke:none;" d="M34 48C38.7199 49.9805 44.9198 49 50 49L82 49C77.2801 47.0194 71.0802 48 66 48L34 48z"/>
<path style="fill:#fcce6a; stroke:none;" d="M99.6667 48.3333C99.2222 48.7778 100.278 48.7222 100.333 48.6667C100.778 48.2223 99.7222 48.2777 99.6667 48.3333z"/>
<path style="fill:#fcdb93; stroke:none;" d="M101.667 48.3333C101.222 48.7778 102.278 48.7222 102.333 48.6667C102.778 48.2222 101.722 48.2778 101.667 48.3333z"/>
<path style="fill:#feedc9; stroke:none;" d="M103 48C104.248 48.6848 104.548 48.7488 106 49C104.752 48.3152 104.451 48.2512 103 48z"/>
<path style="fill:#ffffff; stroke:none;" d="M96 49L96 132L110 132L110 108C110.001 105.115 109.348 100.858 111.603 98.6034C115.253 94.9558 123.536 97.9265 126.957 100.51C135.267 106.786 136.805 122.427 139 132L155 132C150.061 119.179 150.498 100.022 137 93C141.471 89.7217 146.179 86.9284 149.034 81.9853C155.759 70.3431 150.39 55.2335 138 50.4684C124.763 45.3774 109.661 48.991 96 49z"/>
<path style="fill:#feedc9; stroke:none;" d="M128.667 48.3333C128.222 48.7778 129.278 48.7222 129.333 48.6667C129.778 48.2222 128.722 48.2778 128.667 48.3333z"/>
<path style="fill:#fcd785; stroke:none;" d="M130 48C131.248 48.6848 131.549 48.7488 133 49C131.752 48.3152 131.452 48.2512 130 48z"/>
<path style="fill:#fcd277; stroke:none;" d="M9 49L10 50L9 49z"/>
<path style="fill:#ffffff; stroke:none;" d="M34 49L34 132L48 132L48 96L79 96L79 85L58 85C55.3408 84.9945 51.6742 85.4674 49.6034 83.3966C47.7324 81.5257 48.0174 78.4182 48.0008 76L48 60L82 60L82 49L34 49z"/>
<path style="fill:#fbca5c; stroke:none;" d="M95 49L95 132C97.3949 126.293 96 118.154 96 112L96 71C96 64.3141 97.5991 55.1939 95 49z"/>
<path style="fill:#fcd277; stroke:none;" d="M170 49L171 50L170 49z"/>
<path style="fill:#fcd785; stroke:none;" d="M138 50L139 51L138 50M8 51L9 52L8 51z"/>
<path style="fill:#fcdb93; stroke:none;" d="M140 51L141 52L140 51z"/>
<path style="fill:#fcd785; stroke:none;" d="M171 51L172 52L171 51z"/>
<path style="fill:#fcd277; stroke:none;" d="M142 52L143 53L142 52z"/>
<path style="fill:#fcdb93; stroke:none;" d="M7 53L8 54L7 53M172 53L173 54L172 53z"/>
<path style="fill:#fde4ae; stroke:none;" d="M6 55L7 56L6 55M173 55L174 56L173 55z"/>
<path style="fill:#fcdb93; stroke:none;" d="M5 58L6 59L5 58z"/>
<path style="fill:#fde0a0; stroke:none;" d="M148 58L149 59L148 58z"/>
<path style="fill:#fcdb93; stroke:none;" d="M174 58L175 59L174 58M111.667 59.3333C111.222 59.7778 112.278 59.7222 112.333 59.6667C112.778 59.2222 111.722 59.2778 111.667 59.3333z"/>
<path style="fill:#fbca5c; stroke:none;" d="M113 59C114.248 59.6848 114.548 59.7488 116 60C114.752 59.3152 114.452 59.2512 113 59z"/>
<path style="fill:#fab827; stroke:none;" d="M111 60L111 86C117.273 86 125.347 87.3062 130.956 83.9105C138.152 79.5539 139.11 66.8757 131.891 62.0085C125.667 57.8116 117.887 59.4565 111 60z"/>
<path style="fill:#fcd277; stroke:none;" d="M124 59C125.248 59.6848 125.548 59.7488 127 60C125.752 59.3152 125.452 59.2512 124 59z"/>
<path style="fill:#feedc9; stroke:none;" d="M48 60L48 84C50.3486 78.4031 50.3486 65.5969 48 60z"/>
<path style="fill:#fcdb93; stroke:none;" d="M49 60C52.6986 61.552 57.0172 61 61 61L82 61C78.3013 59.448 73.9828 60 70 60L49 60z"/>
<path style="fill:#feedc9; stroke:none;" d="M110 60L110 87C112.541 80.945 112.541 66.055 110 60z"/>
<path style="fill:#fcdb93; stroke:none;" d="M129 60L130 61L129 60M131 61L132 62L131 61z"/>
<path style="fill:#fbc54f; stroke:none;" d="M3.33333 64.6667C3.27777 64.7222 3.22223 65.7778 3.66667 65.3333C3.7222 65.2778 3.77779 64.2222 3.33333 64.6667M176.333 64.6667C176.278 64.7223 176.222 65.7777 176.667 65.3333C176.722 65.2778 176.778 64.2222 176.333 64.6667z"/>
<path style="fill:#fde4ae; stroke:none;" d="M135 65L136 66L135 65z"/>
<path style="fill:#feedc9; stroke:none;" d="M151 65L151 68C151.696 66.4463 151.696 66.5537 151 65z"/>
<path style="fill:#fcd785; stroke:none;" d="M2.33333 67.6667C2.27775 67.7222 2.22225 68.7778 2.66667 68.3333C2.72219 68.2778 2.7778 67.2222 2.33333 67.6667M177.333 67.6667C177.278 67.7223 177.222 68.7778 177.667 68.3333C177.722 68.2778 177.778 67.2222 177.333 67.6667z"/>
<path style="fill:#fbc54f; stroke:none;" d="M136.333 68.6667C136.278 68.7222 136.222 69.7778 136.667 69.3333C136.722 69.2778 136.778 68.2222 136.333 68.6667M152.333 70.6667C152.278 70.7223 152.222 71.7778 152.667 71.3333C152.722 71.2778 152.778 70.2222 152.333 70.6667z"/>
<path style="fill:#fde0a0; stroke:none;" d="M178.333 71.6667C178.278 71.7222 178.222 72.7778 178.667 72.3333C178.722 72.2778 178.778 71.2222 178.333 71.6667z"/>
<path style="fill:#fcd277; stroke:none;" d="M1.33333 72.6667C1.27776 72.7222 1.22224 73.7778 1.66667 73.3333C1.72222 73.2778 1.77779 72.2222 1.33333 72.6667z"/>
<path style="fill:#fbc54f; stroke:none;" d="M178.333 73.6667C178.278 73.7222 178.222 74.7778 178.667 74.3333C178.722 74.2778 178.778 73.2222 178.333 73.6667z"/>
<path style="fill:#fcd785; stroke:none;" d="M151.333 75.6667C151.278 75.7223 151.222 76.7777 151.667 76.3333C151.722 76.2778 151.778 75.2222 151.333 75.6667z"/>
<path style="fill:#feedc9; stroke:none;" d="M0.333333 76.6667C0.277785 76.7222 0.222215 77.7778 0.666667 77.3333C0.722227 77.2778 0.77778 76.2222 0.333333 76.6667z"/>
<path style="fill:#fde9bb; stroke:none;" d="M136.333 76.6667C136.278 76.7222 136.222 77.7778 136.667 77.3333C136.722 77.2778 136.778 76.2222 136.333 76.6667z"/>
<path style="fill:#feedc9; stroke:none;" d="M179.333 76.6667C179.278 76.7222 179.222 77.7778 179.667 77.3333C179.722 77.2778 179.778 76.2222 179.333 76.6667z"/>
<path style="fill:#fcdb93; stroke:none;" d="M0.333333 78.6667C0.277779 78.7222 0.222226 79.7778 0.666667 79.3333C0.722215 79.2778 0.777785 78.2222 0.333333 78.6667M179.333 78.6667C179.278 78.7222 179.222 79.7778 179.667 79.3333C179.722 79.2778 179.778 78.2222 179.333 78.6667z"/>
<path style="fill:#fde4ae; stroke:none;" d="M135 79L136 80L135 79z"/>
<path style="fill:#fcdb93; stroke:none;" d="M150 79L151 80L150 79z"/>
<path style="fill:#fbca5c; stroke:none;" d="M0 80L0 83C0.696103 81.4463 0.696101 81.5537 0 80M179 80L179 83C179.696 81.4463 179.696 81.5537 179 80z"/>
<path style="fill:#fcdb93; stroke:none;" d="M149 81L150 82L149 81z"/>
<path style="fill:#feedc9; stroke:none;" d="M49 84C57.1277 87.4105 70.1864 85 79 85L79 96C80.5515 92.3025 80 87.9832 80 84L49 84z"/>
<path style="fill:#fde0a0; stroke:none;" d="M147 84L148 85L147 84z"/>
<path style="fill:#fcd277; stroke:none;" d="M127 85L128 86L127 85z"/>
<path style="fill:#fde4ae; stroke:none;" d="M146 85L147 86L146 85z"/>
<path style="fill:#fbca5c; stroke:none;" d="M111 86C114.432 87.4403 118.3 87 122 87C118.568 85.5597 114.7 86 111 86z"/>
<path style="fill:#fcdb93; stroke:none;" d="M122 86C123.248 86.6848 123.548 86.7488 125 87C123.752 86.3152 123.452 86.2512 122 86z"/>
<path style="fill:#fde4ae; stroke:none;" d="M144 87L145 88L144 87z"/>
<path style="fill:#fcdb93; stroke:none;" d="M143 88L144 89L143 88M140 90L141 91L140 90M138 91L139 92L138 91M138 93L139 94L138 93z"/>
<path style="fill:#fcd277; stroke:none;" d="M141 95L142 96L141 95z"/>
<path style="fill:#feedc9; stroke:none;" d="M48 96L48 132C50.9032 125.081 49 114.48 49 107C49 103.298 49.4412 99.4345 48 96z"/>
<path style="fill:#fcdb93; stroke:none;" d="M49 96C57.3668 99.5108 70.9239 97 80 97C71.6332 93.4892 58.0762 96 49 96z"/>
<path style="fill:#fcd277; stroke:none;" d="M142 96L143 97L142 96z"/>
<path style="fill:#fbca5c; stroke:none;" d="M0 97L0 100C0.696103 98.4463 0.696099 98.5537 0 97z"/>
<path style="fill:#feedc9; stroke:none;" d="M111 97C114.163 98.3274 117.586 97.9996 121 98C117.837 96.6726 114.414 97.0004 111 97z"/>
<path style="fill:#fbca5c; stroke:none;" d="M179 97L179 100C179.696 98.4463 179.696 98.5537 179 97z"/>
<path style="fill:#feedc9; stroke:none;" d="M110 98L110 132C112.802 125.323 111 115.215 111 108C111 104.581 111.328 101.166 110 98z"/>
<path style="fill:#fcd277; stroke:none;" d="M126 99L127 100L126 99z"/>
<path style="fill:#fde0a0; stroke:none;" d="M0.333333 100.667C0.277779 100.722 0.222226 101.778 0.666667 101.333C0.722221 101.278 0.777774 100.222 0.333333 100.667M179.333 100.667C179.278 100.722 179.222 101.778 179.667 101.333C179.722 101.278 179.778 100.222 179.333 100.667z"/>
<path style="fill:#ffffff; stroke:none;" d="M0 102L0 180L76 180C66.343 175.35 55.5704 174.081 46 168.572C28.9159 158.738 14.6712 143.156 6.87268 125C3.68924 117.588 3.10014 109.187 0 102z"/>
<path style="fill:#fcd277; stroke:none;" d="M146 102L147 103L146 102z"/>
<path style="fill:#ffffff; stroke:none;" d="M179 102C178.394 131.19 153.831 158.833 129 171.241C120.696 175.39 111.351 178.806 102 179C108.678 181.802 118.784 180 126 180L180 180L180 126C180 118.784 181.802 108.678 179 102z"/>
<path style="fill:#fde0a0; stroke:none;" d="M1 106L1 109C1.6961 107.446 1.6961 107.554 1 106M178 106L178 109C178.696 107.446 178.696 107.554 178 106z"/>
<path style="fill:#feedc9; stroke:none;" d="M148.333 108.667C148.278 108.722 148.222 109.778 148.667 109.333C148.722 109.278 148.778 108.222 148.333 108.667z"/>
<path style="fill:#fbca5c; stroke:none;" d="M133.333 110.667C133.278 110.722 133.222 111.778 133.667 111.333C133.722 111.278 133.778 110.222 133.333 110.667z"/>
<path style="fill:#fde9bb; stroke:none;" d="M2.33333 111.667C2.27776 111.722 2.22223 112.778 2.66667 112.333C2.7222 112.278 2.77779 111.222 2.33333 111.667M177.333 111.667C177.278 111.722 177.222 112.778 177.667 112.333C177.722 112.278 177.778 111.222 177.333 111.667z"/>
<path style="fill:#feedc9; stroke:none;" d="M149.333 112.667C149.278 112.722 149.222 113.778 149.667 113.333C149.722 113.278 149.778 112.222 149.333 112.667z"/>
<path style="fill:#fcce6a; stroke:none;" d="M134.333 114.667C134.278 114.722 134.222 115.778 134.667 115.333C134.722 115.278 134.778 114.222 134.333 114.667z"/>
<path style="fill:#fef2d6; stroke:none;" d="M3.33333 115.667C3.27778 115.722 3.22222 116.778 3.66667 116.333C3.72223 116.278 3.77777 115.222 3.33333 115.667M176.333 115.667C176.278 115.722 176.222 116.778 176.667 116.333C176.722 116.278 176.778 115.222 176.333 115.667z"/>
<path style="fill:#fde9bb; stroke:none;" d="M150.333 116.667C150.278 116.722 150.222 117.778 150.667 117.333C150.722 117.278 150.778 116.222 150.333 116.667z"/>
<path style="fill:#fcd785; stroke:none;" d="M4 118L5 119L4 118z"/>
<path style="fill:#fcd277; stroke:none;" d="M135.333 118.667C135.278 118.722 135.222 119.778 135.667 119.333C135.722 119.278 135.778 118.222 135.333 118.667z"/>
<path style="fill:#fcd785; stroke:none;" d="M175 118L176 119L175 118z"/>
<path style="fill:#feedc9; stroke:none;" d="M151.333 120.667C151.278 120.722 151.222 121.778 151.667 121.333C151.722 121.278 151.778 120.222 151.333 120.667z"/>
<path style="fill:#fcdb93; stroke:none;" d="M5 121L6 122L5 121M174 121L175 122L174 121z"/>
<path style="fill:#fcce6a; stroke:none;" d="M136.333 122.667C136.278 122.722 136.222 123.778 136.667 123.333C136.722 123.278 136.778 122.222 136.333 122.667z"/>
<path style="fill:#fde4ae; stroke:none;" d="M6 124L7 125L6 124z"/>
<path style="fill:#fef2d6; stroke:none;" d="M152.333 124.667C152.278 124.722 152.222 125.778 152.667 125.333C152.722 125.278 152.778 124.222 152.333 124.667z"/>
<path style="fill:#fde4ae; stroke:none;" d="M173 124L174 125L173 124z"/>
<path style="fill:#fcdb93; stroke:none;" d="M7 126L8 127L7 126z"/>
<path style="fill:#fbc54f; stroke:none;" d="M137.333 126.667C137.278 126.722 137.222 127.778 137.667 127.333C137.722 127.278 137.778 126.222 137.333 126.667z"/>
<path style="fill:#fcdb93; stroke:none;" d="M172 126L173 127L172 126z"/>
<path style="fill:#fde9bb; stroke:none;" d="M153.333 127.667C153.278 127.722 153.222 128.778 153.667 128.333C153.722 128.278 153.778 127.222 153.333 127.667z"/>
<path style="fill:#fcd785; stroke:none;" d="M8 128L9 129L8 128M171 128L172 129L171 128z"/>
<path style="fill:#fde0a0; stroke:none;" d="M138 129L139 130L138 129z"/>
<path style="fill:#fcd277; stroke:none;" d="M9 130L10 131L9 130M154 130L155 131L154 130M170 130L171 131L170 130z"/>
<path style="fill:#fcdb93; stroke:none;" d="M10 132L11 133L10 132M96 132C100.471 133.876 106.183 133 111 133C106.529 131.124 100.817 132 96 132M140 132C144.471 133.876 150.183 133 155 133C150.529 131.124 144.817 132 140 132M169 132L170 133L169 132z"/>
<path style="fill:#fde0a0; stroke:none;" d="M11 134L12 135L11 134M168 134L169 135L168 134M14 139L15 140L14 139M165 139L166 140L165 139z"/>
<path style="fill:#fcd785; stroke:none;" d="M17 143L18 144L17 143M162 143L163 144L162 143z"/>
<path style="fill:#fde0a0; stroke:none;" d="M20 147L21 148L20 147M159 147L160 148L159 147z"/>
<path style="fill:#fcd277; stroke:none;" d="M21 148L22 149L21 148M158 148L159 149L158 148M31 158L32 159L31 158M148 158L149 159L148 158z"/>
<path style="fill:#fde0a0; stroke:none;" d="M32 159L33 160L32 159M147 159L148 160L147 159z"/>
<path style="fill:#fcd785; stroke:none;" d="M36 162L37 163L36 162M143 162L144 163L143 162z"/>
<path style="fill:#fde0a0; stroke:none;" d="M40 165L41 166L40 165M139 165L140 166L139 165M45 168L46 169L45 168M134 168L135 169L134 168z"/>
<path style="fill:#fcdb93; stroke:none;" d="M47 169L48 170L47 169M132 169L133 170L132 169z"/>
<path style="fill:#fcd277; stroke:none;" d="M49 170L50 171L49 170M130 170L131 171L130 170z"/>
<path style="fill:#fcd785; stroke:none;" d="M51 171L52 172L51 171M128 171L129 172L128 171z"/>
<path style="fill:#fcdb93; stroke:none;" d="M53 172L54 173L53 172M126 172L127 173L126 172z"/>
<path style="fill:#fde4ae; stroke:none;" d="M55 173L56 174L55 173M124 173L125 174L124 173z"/>
<path style="fill:#fcdb93; stroke:none;" d="M58 174L59 175L58 174M121 174L122 175L121 174z"/>
<path style="fill:#fcd785; stroke:none;" d="M118 175L119 176L118 175z"/>
<path style="fill:#fbc54f; stroke:none;" d="M64.6667 176.333C64.2222 176.778 65.2778 176.722 65.3333 176.667C65.7778 176.222 64.7222 176.278 64.6667 176.333z"/>
<path style="fill:#fef2d6; stroke:none;" d="M115.667 176.333C115.222 176.778 116.278 176.722 116.333 176.667C116.778 176.222 115.722 176.278 115.667 176.333z"/>
<path style="fill:#fcd785; stroke:none;" d="M67.6667 177.333C67.2222 177.778 68.2778 177.722 68.3333 177.667C68.7778 177.222 67.7222 177.278 67.6667 177.333z"/>
<path style="fill:#fde9bb; stroke:none;" d="M111.667 177.333C111.222 177.778 112.278 177.722 112.333 177.667C112.778 177.222 111.722 177.278 111.667 177.333z"/>
<path style="fill:#fde0a0; stroke:none;" d="M71.6667 178.333C71.2222 178.778 72.2778 178.722 72.3333 178.667C72.7778 178.222 71.7222 178.278 71.6667 178.333z"/>
<path style="fill:#fbc54f; stroke:none;" d="M73.6667 178.333C73.2222 178.778 74.2778 178.722 74.3333 178.667C74.7778 178.222 73.7222 178.278 73.6667 178.333z"/>
<path style="fill:#fde0a0; stroke:none;" d="M106 178C107.248 178.685 107.548 178.749 109 179C107.752 178.315 107.452 178.251 106 178z"/>
<path style="fill:#feedc9; stroke:none;" d="M76.6667 179.333C76.2222 179.778 77.2778 179.722 77.3333 179.667C77.7778 179.222 76.7222 179.278 76.6667 179.333z"/>
<path style="fill:#fcdb93; stroke:none;" d="M78.6667 179.333C78.2222 179.778 79.2778 179.722 79.3333 179.667C79.7778 179.222 78.7222 179.278 78.6667 179.333z"/>
<path style="fill:#fbca5c; stroke:none;" d="M80 179C81.2483 179.685 81.5484 179.749 83 180C81.7516 179.315 81.4516 179.251 80 179M97 179C98.2483 179.685 98.5484 179.749 100 180C98.7516 179.315 98.4516 179.251 97 179z"/>
<path style="fill:#fde0a0; stroke:none;" d="M100.667 179.333C100.222 179.778 101.278 179.722 101.333 179.667C101.778 179.222 100.722 179.278 100.667 179.333z"/>
</svg>
